<svg xmlns="http://www.w3.org/2000/svg" viewBox="0 0 216.59 290.89"><defs><style>.cls-1{fill:#f98b24;}.cls-2,.cls-3{fill:#fff;}.cls-3{stroke:#fff;stroke-miterlimit:10;stroke-width:0.5px;}</style></defs><g id="Layer_2" data-name="Layer 2"><g id="Layer_1-2" data-name="Layer 1"><path d="M207.92,96.47a29.19,29.19,0,0,0-11.61-7.11A29.39,29.39,0,0,0,172.2,68.87c.12-.42.26-.83.38-1.26A44.25,44.25,0,0,0,174.2,56V31.7A31.68,31.68,0,0,0,142.5,0H43.81A31.26,31.26,0,0,0,20.58,10a31.78,31.78,0,0,0-8,16.51,31.39,31.39,0,0,0-4.07,3.68A31.83,31.83,0,0,0,0,51.91V79.38A31.75,31.75,0,0,0,8.44,101,31.26,31.26,0,0,0,31.7,111.1H43.16l-37,64.28a29.85,29.85,0,0,0-1.64,27.87c4.83,10.42,15.26,16.9,27.22,16.9H67.59a34.09,34.09,0,0,0,18.64-5.64,36.25,36.25,0,0,0,11.15-11.18l.35-.55,8.64-15.42a34.83,34.83,0,0,0,3.12-4.22l.35-.55,12.32-22q.69.27,1.41.51a29.14,29.14,0,0,0,7.28,12,29.46,29.46,0,0,0,21,8.72H168a29.3,29.3,0,0,0,21.69-9.36,29.6,29.6,0,0,0,6.58-11.28,29,29,0,0,0,12.38-7.92,29.64,29.64,0,0,0,8-20.29V117.54A29.57,29.57,0,0,0,207.92,96.47Z"/><path class="cls-1" d="M168.83,158.26h-16.1a4,4,0,0,1-2.9-1.2,4,4,0,0,1-1.19-2.89V140.46a1.23,1.23,0,0,0-1.4-1.39H133.88a4.16,4.16,0,0,1-3-1.2,4,4,0,0,1-1.19-2.89V119.56a3.9,3.9,0,0,1,1.23-3,4.16,4.16,0,0,1,3-1.11h13.36a1.26,1.26,0,0,0,1-.37,1.42,1.42,0,0,0,.38-1V100.25a3.93,3.93,0,0,1,1.23-3,4.12,4.12,0,0,1,2.86-1.1h16.1a3.89,3.89,0,0,1,4.09,4.08v13.83a1.31,1.31,0,0,0,.41,1,1.29,1.29,0,0,0,1,.4H187.8a3.91,3.91,0,0,1,4.08,4.09V135a4.12,4.12,0,0,1-1.1,2.86,4,4,0,0,1-3,1.23H174.32a1.43,1.43,0,0,0-1,.38,1.25,1.25,0,0,0-.37,1v13.71a4.11,4.11,0,0,1-1.1,2.86A4,4,0,0,1,168.83,158.26Z"/><path class="cls-2" d="M146.75,30.33a4.62,4.62,0,0,0-3.39-1.4H44.68a4.51,4.51,0,0,0-3.49,1.41,4.8,4.8,0,0,0-1.3,3.4v14H32.57a5.83,5.83,0,0,0-4.48,1.84,6.15,6.15,0,0,0-1.65,4.32V81.39a6.14,6.14,0,0,0,1.65,4.32,5.82,5.82,0,0,0,4.48,1.84H85.8c.81,0,1.32.18,1.53.52s.1.91-.31,1.64L29,190.36a4.21,4.21,0,0,0-.48,4.16c.44.95,1.49,2.08,4,2.08H68.45a8.63,8.63,0,0,0,4.72-1.51,11,11,0,0,0,3.43-3.36L134.82,87.85a21.07,21.07,0,0,0,1.75-4.44L145.76,67a20.14,20.14,0,0,0,1.69-4.38,17.75,17.75,0,0,0,.7-4.59V33.72A4.62,4.62,0,0,0,146.75,30.33ZM85.8,84.86H32.57a3.21,3.21,0,0,1-2.5-1,3.53,3.53,0,0,1-.94-2.5V53.93a3.49,3.49,0,0,1,.94-2.49,3.18,3.18,0,0,1,2.5-1h7.32V61.2a4.81,4.81,0,0,0,1.3,3.41A4.5,4.5,0,0,0,44.68,66H97.91a2.85,2.85,0,0,1,2.69,1.2,2.92,2.92,0,0,1-.3,3L90.08,87.94a3.49,3.49,0,0,0-.43-1.22A4.09,4.09,0,0,0,85.8,84.86ZM74.29,190.35a8.32,8.32,0,0,1-2.58,2.48,6,6,0,0,1-3.26,1.08H32.57c-.61,0-1.38-.09-1.57-.52-.08-.17-.3-.63.34-1.65l10.48-18.19c0,.08,0,.15.07.22.4.87,1.33,1.3,2.79,1.3H80.57a6.66,6.66,0,0,0,2.61-.58Z"/><path class="cls-2" d="M50.2,257.69a18.86,18.86,0,0,0,3.62,1.86,9.45,9.45,0,0,0,3.34.67,4.86,4.86,0,0,0,2.26-.42,1.36,1.36,0,0,0,.78-1.27.83.83,0,0,0-.34-.69,2.84,2.84,0,0,0-.89-.42,9.53,9.53,0,0,0-1.3-.27c-.5-.07-1-.16-1.52-.27l-1.74-.32a15.19,15.19,0,0,1-2-.54,14.91,14.91,0,0,1-2.07-.9,7.1,7.1,0,0,1-1.84-1.38,6.33,6.33,0,0,1-1.3-2,7,7,0,0,1-.49-2.75,7.36,7.36,0,0,1,.91-3.85,7.22,7.22,0,0,1,2.31-2.41A9.06,9.06,0,0,1,53,241.47a16.24,16.24,0,0,1,3.34-.36,14.67,14.67,0,0,1,5.08.83,16.29,16.29,0,0,1,4.3,2.41.82.82,0,0,1,.31.58.89.89,0,0,1-.17.61l-2.63,3.74a.87.87,0,0,1-.54.34.73.73,0,0,1-.61-.13A13.65,13.65,0,0,0,58.88,248a9.51,9.51,0,0,0-2.73-.46l-.87,0a3.93,3.93,0,0,0-.92.14,1.55,1.55,0,0,0-.73.38,1,1,0,0,0-.29.75c0,.31.24.59.71.84a9.27,9.27,0,0,0,1.62.64,16.48,16.48,0,0,0,1.76.42c.56.11.92.17,1.08.19a26.49,26.49,0,0,1,2.67.69,10.31,10.31,0,0,1,2.72,1.35A7.68,7.68,0,0,1,66,255.24a6.86,6.86,0,0,1,.86,3.6,7.85,7.85,0,0,1-.71,3.49,6.49,6.49,0,0,1-2,2.42,8.78,8.78,0,0,1-3,1.4,16,16,0,0,1-3.93.45,17.82,17.82,0,0,1-3.28-.28,15.83,15.83,0,0,1-2.83-.8,14.26,14.26,0,0,1-2.45-1.19,20.09,20.09,0,0,1-2.08-1.47.75.75,0,0,1-.3-.56.82.82,0,0,1,.17-.63l2.6-3.74a.82.82,0,0,1,.54-.34A.78.78,0,0,1,50.2,257.69Z"/><path class="cls-2" d="M101.69,265.42l-10.19-23a.74.74,0,0,1,0-.68.6.6,0,0,1,.59-.3h5.5a1.11,1.11,0,0,1,.66.22,1.51,1.51,0,0,1,.49.52l6,13.58a.48.48,0,0,0,.43.3.5.5,0,0,0,.44-.3l5.91-13.58a1.61,1.61,0,0,1,.49-.52,1.11,1.11,0,0,1,.66-.22h5.6a.58.58,0,0,1,.54.29.52.52,0,0,1,0,.55l-10.3,23.13a1.64,1.64,0,0,1-.49.53,1.18,1.18,0,0,1-.66.22h-4.49a1.24,1.24,0,0,1-.66-.22A1.75,1.75,0,0,1,101.69,265.42Z"/><path class="cls-2" d="M128.13,248.47v1.42a.75.75,0,0,0,.24.57.76.76,0,0,0,.57.24h9.15a.8.8,0,0,1,.81.81v4.66a.79.79,0,0,1-.81.81h-9.15a.76.76,0,0,0-.57.24.78.78,0,0,0-.24.57v1.28a.78.78,0,0,0,.24.58.75.75,0,0,0,.57.23h10.5a.78.78,0,0,1,.58.24.82.82,0,0,1,.23.58v4.65a.82.82,0,0,1-.23.58.78.78,0,0,1-.58.24H122.26a.78.78,0,0,1-.58-.24.78.78,0,0,1-.23-.58V242.26a.75.75,0,0,1,.23-.57.78.78,0,0,1,.58-.24h17.18a.8.8,0,0,1,.81.81v4.59a.79.79,0,0,1-.81.81h-10.5a.76.76,0,0,0-.57.24A.78.78,0,0,0,128.13,248.47Z"/><path class="cls-2" d="M167.77,242.26v23.09a.78.78,0,0,1-.24.58.75.75,0,0,1-.57.24h-5a1.41,1.41,0,0,1-.7-.21,1.73,1.73,0,0,1-.58-.47L151.9,253.1c-.14-.18-.28-.26-.42-.22s-.22.16-.22.39v12.08a.82.82,0,0,1-.82.82h-5.05a.82.82,0,0,1-.82-.82V242.26a.76.76,0,0,1,.24-.57.78.78,0,0,1,.57-.24h5.07a1.66,1.66,0,0,1,.71.18,1.58,1.58,0,0,1,.57.46l8.78,12.39q.21.27.42.24c.15,0,.22-.15.22-.37V242.26a.76.76,0,0,1,.24-.57.78.78,0,0,1,.57-.24h5a.82.82,0,0,1,.81.81Z"/><path class="cls-1" d="M90.26,246.34a7.07,7.07,0,0,0-1.37-2.86,5.37,5.37,0,0,0-2.44-1.61,11.21,11.21,0,0,0-3.51-.49H71.38c-.61,0-1,.42-1,1.11v3.13c0,.69.36,1.1,1,1.1H82.87a5.33,5.33,0,0,1,1.58.2,1.81,1.81,0,0,1,.89.6,2.69,2.69,0,0,1,.49,1.22,12.33,12.33,0,0,1,.15,2.1V251H71.52c-.23,0-1,.08-1,1.11v2.6c0,1,.73,1.1,1,1.1H86a11.83,11.83,0,0,1-.15,2.06,2.79,2.79,0,0,1-.49,1.22,1.81,1.81,0,0,1-.89.6,5.37,5.37,0,0,1-1.58.19H71.38c-.61,0-1,.42-1,1.11v3.13c0,.69.36,1.1,1,1.1H82.94a10.74,10.74,0,0,0,3.52-.5,5.43,5.43,0,0,0,2.43-1.63,7,7,0,0,0,1.37-2.84,17.9,17.9,0,0,0,.42-4.12v-5.68A18.11,18.11,0,0,0,90.26,246.34Z"/><path class="cls-3" d="M73.63,286H71.56a.57.57,0,0,0-.41.17.56.56,0,0,0-.17.4v3.55a.54.54,0,0,1-.16.4.56.56,0,0,1-.4.17H66.84a.58.58,0,0,1-.57-.57V273.8a.54.54,0,0,1,.17-.4.57.57,0,0,1,.41-.17h7.27a6.39,6.39,0,0,1,2.51.5,6.18,6.18,0,0,1,2.05,1.38,7.2,7.2,0,0,1,1.38,2,6.18,6.18,0,0,1,.51,2.5,7.23,7.23,0,0,1-.43,2.49,5.33,5.33,0,0,1-1.3,2,6.14,6.14,0,0,1-2.17,1.34A8.78,8.78,0,0,1,73.63,286Zm.17-8.34H71.56a.56.56,0,0,0-.58.56V281a.54.54,0,0,0,.17.4.57.57,0,0,0,.41.17h2.55a1.52,1.52,0,0,0,1.33-.58,2.16,2.16,0,0,0,.42-1.31,2.46,2.46,0,0,0-.13-.75,1.78,1.78,0,0,0-.4-.64,2,2,0,0,0-.64-.47A2.24,2.24,0,0,0,73.8,277.61Z"/><path class="cls-3" d="M103.54,286.83v3.24a.54.54,0,0,1-.17.4.56.56,0,0,1-.4.17H91.1a.55.55,0,0,1-.57-.57V273.8a.55.55,0,0,1,.57-.57h3.57a.58.58,0,0,1,.57.57v11.89a.59.59,0,0,0,.15.41.55.55,0,0,0,.42.16H103a.56.56,0,0,1,.4.17A.54.54,0,0,1,103.54,286.83Z"/><path class="cls-3" d="M118.45,273.78a.81.81,0,0,1,.32-.37.87.87,0,0,1,.49-.16h3.32a.86.86,0,0,1,.47.16.81.81,0,0,1,.32.37L130.31,290a.48.48,0,0,1,0,.45.53.53,0,0,1-.51.24H125.7a.8.8,0,0,1-.49-.16,1,1,0,0,1-.34-.37l-.64-1.42a1,1,0,0,0-.35-.37.81.81,0,0,0-.46-.15h-5a.86.86,0,0,0-.49.15.81.81,0,0,0-.32.37l-.67,1.42a.81.81,0,0,1-.32.37.76.76,0,0,1-.46.16h-4.09a.79.79,0,0,1-.25-.05.46.46,0,0,1-.21-.14.53.53,0,0,1-.11-.24.52.52,0,0,1,.07-.33Zm1.4,10.34H122a.39.39,0,0,0,.34-.15.33.33,0,0,0,0-.37l-.57-1.39-.62-1.49q-.09-.21-.21-.21c-.08,0-.15.07-.22.21l-1.19,2.88a.4.4,0,0,0,0,.37A.41.41,0,0,0,119.85,284.12Z"/><path class="cls-3" d="M155.45,273.92l-5.95,9.63a2.55,2.55,0,0,0-.21.52,2.08,2.08,0,0,0-.1.55v5.45a.54.54,0,0,1-.16.4.56.56,0,0,1-.4.17h-3.58a.56.56,0,0,1-.4-.17.54.54,0,0,1-.16-.4v-5.42a2.09,2.09,0,0,0-.09-.56,1.55,1.55,0,0,0-.2-.51q-1.42-2.46-2.91-4.81t-3-4.85a.53.53,0,0,1-.05-.44.3.3,0,0,1,.31-.23h4.23a1.12,1.12,0,0,1,.86.5l2.91,5.09a.33.33,0,0,0,.28.19.34.34,0,0,0,.29-.19l2.89-5.09a.9.9,0,0,1,.37-.35.93.93,0,0,1,.49-.15h4.28a.38.38,0,0,1,.34.17C155.6,273.53,155.57,273.7,155.45,273.92Z"/></g></g></svg>