<svg xmlns="http://www.w3.org/2000/svg" xmlns:xlink="http://www.w3.org/1999/xlink" viewBox="0 0 92.52 92.52"><defs><style>.cls-1{fill:url(#linear-gradient);}.cls-2{fill:#f98b24;}.cls-3{fill:#fff;}</style><linearGradient id="linear-gradient" x1="53.54" y1="61.24" x2="12.09" y2="-24.03" gradientUnits="userSpaceOnUse"><stop offset="0" stop-color="#4734ae"/><stop offset="1" stop-color="#161441"/></linearGradient></defs><g id="Layer_2" data-name="Layer 2"><g id="Layer_1-2" data-name="Layer 1"><rect class="cls-1" width="92.52" height="92.52" rx="18.63"/><path d="M77.12,43.3a8.25,8.25,0,0,0-3.25-2,8.16,8.16,0,0,0-6.75-5.72c0-.12.08-.23.12-.36A12.51,12.51,0,0,0,67.69,32V25.2a8.84,8.84,0,0,0-8.86-8.86H31.25a8.76,8.76,0,0,0-6.49,2.8,8.88,8.88,0,0,0-2.24,4.62,7.85,7.85,0,0,0-1.14,1A8.88,8.88,0,0,0,19,30.85v7.67a8.85,8.85,0,0,0,2.36,6,8.71,8.71,0,0,0,6.5,2.82h3.2l-10.35,18a8.35,8.35,0,0,0-.46,7.79,8.25,8.25,0,0,0,7.61,4.72h10a9.55,9.55,0,0,0,5.21-1.57,10.31,10.31,0,0,0,3.11-3.13l.1-.15,2.44-4.35a10.22,10.22,0,0,0,.85-1.14l.1-.16,3.44-6.15.39.15a8.32,8.32,0,0,0,7.91,5.79H66A8.17,8.17,0,0,0,72,64.53a8.31,8.31,0,0,0,1.84-3.15,8.28,8.28,0,0,0,5.69-7.88V49.19A8.26,8.26,0,0,0,77.12,43.3Z"/><path class="cls-2" d="M66.19,60.56h-4.5a1.13,1.13,0,0,1-1.14-1.14V55.59a.35.35,0,0,0-.39-.39H56.42a1.13,1.13,0,0,1-1.17-1.14V49.75a1.09,1.09,0,0,1,.34-.83,1.16,1.16,0,0,1,.83-.31h3.74a.33.33,0,0,0,.28-.11.36.36,0,0,0,.11-.28V44.35a1.12,1.12,0,0,1,.34-.83,1.18,1.18,0,0,1,.8-.31h4.5a1.13,1.13,0,0,1,.83.32,1.12,1.12,0,0,1,.31.82v3.87a.34.34,0,0,0,.12.27.36.36,0,0,0,.27.12h3.77a1.07,1.07,0,0,1,1.14,1.14v4.31a1.15,1.15,0,0,1-.3.8,1.13,1.13,0,0,1-.84.34H67.72a.41.41,0,0,0-.28.11.33.33,0,0,0-.11.28v3.83a1.15,1.15,0,0,1-.3.8A1.09,1.09,0,0,1,66.19,60.56Z"/><path class="cls-3" d="M60,24.81a1.28,1.28,0,0,0-1-.39H31.5a1.28,1.28,0,0,0-1,.4,1.34,1.34,0,0,0-.36.95v3.92H28.11a1.63,1.63,0,0,0-1.25.51,1.71,1.71,0,0,0-.46,1.21v7.67a1.71,1.71,0,0,0,.46,1.21,1.63,1.63,0,0,0,1.25.51H43c.22,0,.37.05.42.15s0,.26-.08.46L27.12,69.54A1.15,1.15,0,0,0,27,70.7a1.11,1.11,0,0,0,1.12.58h10a2.42,2.42,0,0,0,1.32-.42,3.19,3.19,0,0,0,1-.94l16.27-29a5.63,5.63,0,0,0,.48-1.23l2.57-4.6a5.17,5.17,0,0,0,.48-1.22,5,5,0,0,0,.19-1.28v-6.8A1.3,1.3,0,0,0,60,24.81ZM43,40.05H28.11a.91.91,0,0,1-.7-.27,1,1,0,0,1-.26-.7V31.41a1,1,0,0,1,.26-.7.91.91,0,0,1,.7-.27h2.05v3a1.34,1.34,0,0,0,.36,1,1.25,1.25,0,0,0,1,.4H46.37A.71.71,0,0,1,47,36l-2.86,5a.9.9,0,0,0-.12-.36A1.14,1.14,0,0,0,43,40.05ZM39.77,69.53a2.3,2.3,0,0,1-.72.7,1.67,1.67,0,0,1-.91.3h-10c-.17,0-.38,0-.44-.15s-.08-.17.1-.46l2.94-5.09a.17.17,0,0,0,0,.07q.16.36.78.36h10a1.87,1.87,0,0,0,.75-.18Z"/></g></g></svg>