<svg xmlns="http://www.w3.org/2000/svg" viewBox="0 0 189.17 242.24"><defs><style>.cls-1{fill:#f98b24;}.cls-2{opacity:0.58;}.cls-3{fill:#fff;}</style></defs><g id="Layer_2" data-name="Layer 2"><g id="Layer_1-2" data-name="Layer 1"><path class="cls-1" d="M60.76,242.24H7.37c-2.27,0-3.75-.7-4.38-2.07a4.59,4.59,0,0,1,.61-4.53L89.9,85.84c.94-1.68,1.09-3.09.45-4.19S88.43,80,86.56,80H7.37A7,7,0,0,1,2,77.83a7.47,7.47,0,0,1-2-5.24V31.74A7.47,7.47,0,0,1,2,26.5a7,7,0,0,1,5.38-2.17H154.19a7.34,7.34,0,0,1,7.37,7.37V67.88a27.26,27.26,0,0,1-1.05,6.89A29.16,29.16,0,0,1,158,81.35L71.36,235.88a14.67,14.67,0,0,1-4.53,4.39A11.08,11.08,0,0,1,60.76,242.24ZM7.37,24.83a6.53,6.53,0,0,0-5,2A7,7,0,0,0,.5,31.74V72.59a7,7,0,0,0,1.86,4.9,6.51,6.51,0,0,0,5,2H86.56c2.06,0,3.48.64,4.22,1.9s.59,2.84-.44,4.69L4,235.89A4.16,4.16,0,0,0,3.44,240c.56,1.2,1.84,1.78,3.93,1.78H60.76a10.61,10.61,0,0,0,5.79-1.89,14.21,14.21,0,0,0,4.38-4.22l86.6-154.52a29.34,29.34,0,0,0,2.5-6.47,26.68,26.68,0,0,0,1-6.76V31.7a6.85,6.85,0,0,0-6.87-6.87Z"/><g class="cls-2"><path class="cls-3" d="M88.38,217.91H83.2v-.5h5.18a8.76,8.76,0,0,0,1.76-.18l.1.49A9,9,0,0,1,88.38,217.91Zm-12.18,0h-7v-.5h7Zm-14,0h-7v-.5h7Zm-14,0h-7v-.5h7Zm-14,0c-1.81-.15-3-.84-3.57-2a3.75,3.75,0,0,1-.36-1.61,4.35,4.35,0,0,1,.25-1.43L31,213a3.86,3.86,0,0,0-.22,1.27,3.25,3.25,0,0,0,.31,1.4c.48,1,1.52,1.62,3.16,1.75Zm62.29-3.46-.33-.38a11.93,11.93,0,0,0,2.4-2.74l1.59-2.84.44.25L99,211.55A12.13,12.13,0,0,1,96.47,214.42Zm-62.13-7.53-.43-.25,3.49-6.07.43.25ZM104,202.6l-.43-.24,3.42-6.11.43.24Zm-62.66-7.84-.43-.25,3.49-6.07.43.25Zm69.51-4.37-.44-.25,3.42-6.1.44.24Zm-62.52-7.77-.44-.24,3.5-6.07.43.25Zm69.36-4.45-.43-.24,3.42-6.11.43.25ZM55.31,170.5l-.44-.25,3.5-6.07.43.25ZM124.53,166l-.44-.24,3.42-6.11.44.25Zm-62.23-7.6-.44-.25,3.5-6.06.43.25Zm69.07-4.61-.44-.25,3.43-6.1.43.24Zm-62.08-7.52-.44-.25,3.5-6.06.43.25Zm68.93-4.69-.44-.25,3.42-6.1.44.24ZM76.27,134.1l-.43-.25,3.5-6.06.43.25Zm68.79-4.78-.44-.24,3.43-6.11.43.25ZM83.26,122l-.43-.25,3.5-6.06.43.25Zm68.65-4.86-.44-.24,3.42-6.11.44.24Zm-61.66-7.27-.43-.25,3.49-6.06.44.25Zm68.5-4.94-.44-.25,3.43-6.1.43.24ZM97.24,97.71l-.43-.25,3.49-6.06.44.25Zm68.35-5-.43-.25,3.42-6.11.44.25Zm-61.36-7.11-.43-.25,3.49-6.06.44.25Zm68.21-5.11-.44-.24,3.43-6.11.43.25Zm-61.22-7-.43-.25,3.49-6.07.44.25Zm68.06-5.19-.43-.24,3.42-6.11.44.24Zm-61.08-7-.45-.22a5.12,5.12,0,0,0,.61-2.26,2.93,2.93,0,0,0-.39-1.49,3.22,3.22,0,0,0-2.1-1.46l.12-.49a3.72,3.72,0,0,1,2.41,1.7,3.38,3.38,0,0,1,.46,1.74A5.68,5.68,0,0,1,118.2,61.29ZM186.1,56l-.45-.22a30.52,30.52,0,0,0,2-5.49c.1-.36.19-.72.27-1.06l.49.11c-.08.36-.18.72-.27,1.08A32.33,32.33,0,0,1,186.1,56ZM109,55.67h-7v-.5h7Zm-14,0H88v-.5h7Zm-14,0H74v-.5h7Zm-14,0H60v-.5h7Zm-14,0H46v-.5h7Zm-14,0H35a8,8,0,0,1-3.07-.56l.19-.46a7.66,7.66,0,0,0,2.88.52h4ZM27.72,49.58a8,8,0,0,1-.1-1.32V42.55h.5v5.71a8.45,8.45,0,0,0,.09,1.25Zm161.45-7.21h-.5v-7h.5Zm-161-6.82h-.5v-7h.5Zm161-7.18h-.5v-7h.5Zm-161-6.82h-.5v-7h.5Zm161-7.18h-.5v-7a7.42,7.42,0,0,0-.13-1.44l.49-.1a8.56,8.56,0,0,1,.14,1.54Zm-161-6.82h-.5V7.41a7.47,7.47,0,0,1,2-5.24,7.07,7.07,0,0,1,1-.89l.29.4a6.07,6.07,0,0,0-.93.83,7,7,0,0,0-1.86,4.9ZM184.36,1A7.09,7.09,0,0,0,181.81.5h-4.29V0h4.29a7.49,7.49,0,0,1,2.74.5ZM170.52.5h-7V0h7Zm-14,0h-7V0h7Zm-14,0h-7V0h7Zm-14,0h-7V0h7Zm-14,0h-7V0h7Zm-14,0h-7V0h7Zm-14,0h-7V0h7Zm-14,0h-7V0h7Zm-14,0h-7V0h7Zm-14,0h-7V0h7Z"/></g></g></g></svg>